<?xml version="1.0" encoding="utf-8"?>
<!-- Generator: Adobe Illustrator 16.0.0, SVG Export Plug-In . SVG Version: 6.00 Build 0)  -->
<!DOCTYPE svg PUBLIC "-//W3C//DTD SVG 1.1//EN" "http://www.w3.org/Graphics/SVG/1.1/DTD/svg11.dtd">
<svg version="1.1" id="Layer_1" xmlns="http://www.w3.org/2000/svg" xmlns:xlink="http://www.w3.org/1999/xlink" x="0px" y="0px"
	 width="80px" height="80px" viewBox="0 0 80 80" enable-background="new 0 0 80 80" xml:space="preserve">
<path fill="#F99C1C" d="M50.7,40l22.167-22.166c0.844-0.845,0.844-2.214,0-3.058l-7.643-7.643c-0.843-0.844-2.214-0.844-3.058,0
	L40,29.3L17.834,7.133c-0.845-0.844-2.214-0.844-3.059,0l-7.642,7.643c-0.844,0.843-0.844,2.213,0,3.058L29.3,40L7.133,62.167
	c-0.844,0.844-0.844,2.215,0,3.057l7.642,7.644c0.845,0.844,2.214,0.844,3.059,0L40,50.7l22.167,22.167
	c0.844,0.844,2.215,0.844,3.058,0l7.643-7.644c0.844-0.842,0.844-2.213,0-3.057L50.7,40z"/>
</svg>
