<?xml version="1.0" encoding="utf-8"?>
<!-- Generator: Adobe Illustrator 16.0.0, SVG Export Plug-In . SVG Version: 6.00 Build 0)  -->
<!DOCTYPE svg PUBLIC "-//W3C//DTD SVG 1.1//EN" "http://www.w3.org/Graphics/SVG/1.1/DTD/svg11.dtd">
<svg version="1.1" id="Layer_1" xmlns="http://www.w3.org/2000/svg" xmlns:xlink="http://www.w3.org/1999/xlink" x="0px" y="0px"
	 width="80px" height="80px" viewBox="0 0 80 80" enable-background="new 0 0 80 80" xml:space="preserve">
<g>
	<path fill="#FF9D00" d="M39.64,0c5.156,0,8.66,3.917,8.66,8.967c0,5.362-3.816,9.071-8.66,9.071c-4.743,0-8.557-3.71-8.557-9.071
		C31.083,3.711,34.897,0,39.64,0z"/>
	<path fill="#FF9D00" d="M26.033,72.672c6.083,0,6.596-0.926,6.596-8.553V40.511c0-7.629-0.411-8.146-6.596-8.146v-4.121
		c6.289-0.413,12.988-2.064,20.102-5.051l1.752,0.926v40.101c0,7.522,0.616,8.451,6.083,8.451V77H26.033V72.672z"/>
</g>
</svg>
