<?xml version="1.0" encoding="utf-8"?>
<!-- Generator: Adobe Illustrator 16.0.0, SVG Export Plug-In . SVG Version: 6.00 Build 0)  -->
<!DOCTYPE svg PUBLIC "-//W3C//DTD SVG 1.1//EN" "http://www.w3.org/Graphics/SVG/1.1/DTD/svg11.dtd">
<svg version="1.1" id="Layer_1" xmlns="http://www.w3.org/2000/svg" xmlns:xlink="http://www.w3.org/1999/xlink" x="0px" y="0px"
	 width="80px" height="80px" viewBox="0 0 80 80" enable-background="new 0 0 80 80" xml:space="preserve">
<path fill="#FF9D00" d="M77.046,56.247c0,2.819-2.192,5.105-4.898,5.105H17.649H7.853c-2.705,0-4.898-2.286-4.898-5.105V16.356
	c0-2.82,2.193-5.106,4.898-5.106h64.295c2.706,0,4.898,2.286,4.898,5.106V56.247z"/>
<path fill="#FF9D00" d="M44.5,58.25c0-2.209-1.791-4-4-4H23.75c-2.209,0-4,1.791-4,4V75c0,2.209-0.418,4,1.791,4
	c1.709,0,4.228-2.978,4.228-2.978L44.5,58.25"/>
</svg>
