<?xml version="1.0" encoding="utf-8"?>
<!-- Generator: Adobe Illustrator 16.0.0, SVG Export Plug-In . SVG Version: 6.00 Build 0)  -->
<!DOCTYPE svg PUBLIC "-//W3C//DTD SVG 1.1//EN" "http://www.w3.org/Graphics/SVG/1.1/DTD/svg11.dtd">
<svg version="1.1" id="Layer_1" xmlns="http://www.w3.org/2000/svg" xmlns:xlink="http://www.w3.org/1999/xlink" x="0px" y="0px"
	 width="80px" height="80px" viewBox="0 0 80 80" enable-background="new 0 0 80 80" xml:space="preserve">
<path fill="#FF9D00" d="M76.345,34.771c-0.299-0.367-0.576-0.815-0.952-1.037c-1.646-0.969-1.779-2.247-1.361-4.252
	c1.429-6.883-0.005-12.989-4.974-17.583c-5.112-4.727-10.837-5.524-16.842-2.287c-1.537,0.828-3.045,1.97-4.21,3.346
	c-1.099,1.297-1.829,1.088-2.847,0.162c-4.018-3.661-8.541-4.225-13.333-2.497c-2.879,1.038-5.115,3.166-6.794,5.969
	c-0.569,0.949-1.077,1.139-2.084,0.749c-8.254-3.201-17.703,1.168-21.296,10.11c-4.728,11.767,1.155,24.301,11.778,27.3
	c1.835,0.518,3.847,0.354,5.774,0.312c0.979-0.021,1.638,0.096,2.242,1.096c1.584,2.618,3.822,4.324,6.512,5.272
	c3.886,1.371,0.19,7.836-1.66,9.875c-1.003,1.104-2.047,2.176-3.152,3.176c1.856,0.053,4.211-0.598,6.044-1.261
	c3.704-1.34,6.818-3.809,9.386-7.088c0.694-0.887,1.162-0.874,1.933-0.086c3.242,3.321,7.042,4.802,11.464,4.276
	c5.113-0.609,8.794-3.57,11.143-8.567c0.609-1.292,1.247-1.562,2.414-1.512c6.59,0.279,11.749-3.68,13.814-10.524
	c0.249-0.826,0.439-1.674,0.657-2.513c0-1.338,0-2.676,0-4.014C79.41,40.044,78.305,37.173,76.345,34.771z"/>
</svg>
