<?xml version="1.0" encoding="utf-8"?>
<!-- Generator: Adobe Illustrator 16.0.0, SVG Export Plug-In . SVG Version: 6.00 Build 0)  -->
<!DOCTYPE svg PUBLIC "-//W3C//DTD SVG 1.1//EN" "http://www.w3.org/Graphics/SVG/1.1/DTD/svg11.dtd">
<svg version="1.1" id="Layer_1" xmlns="http://www.w3.org/2000/svg" xmlns:xlink="http://www.w3.org/1999/xlink" x="0px" y="0px"
	 width="80px" height="80px" viewBox="0 0 80 80" enable-background="new 0 0 80 80" xml:space="preserve">
<path fill="#F99C1C" d="M54.379,10.949c-0.143-0.145-0.377-0.145-0.521,0L11.23,53.522c-0.144,0.143-0.144,0.374,0,0.519
	l14.404,14.388c0.072,0.071,0.167,0.108,0.261,0.108s0.188-0.037,0.26-0.108l42.629-42.573c0.068-0.069,0.108-0.162,0.108-0.261
	c0-0.097-0.04-0.191-0.108-0.261L54.379,10.949z"/>
<path fill="#F99C1C" d="M75.134,9.34l-4.738-4.733C69.035,3.248,67.226,2.5,65.3,2.5c-1.923,0-3.731,0.748-5.091,2.106l-4.74,4.733
	c-0.069,0.07-0.109,0.162-0.109,0.26c0,0.097,0.04,0.191,0.109,0.259l14.405,14.387c0.067,0.069,0.163,0.108,0.262,0.108
	c0.097,0,0.19-0.039,0.258-0.108l4.739-4.733c1.36-1.359,2.11-3.165,2.11-5.087C77.245,12.505,76.495,10.699,75.134,9.34z"/>
<path fill="#F99C1C" d="M10.268,54.977c-0.092-0.092-0.221-0.131-0.348-0.099c-0.125,0.03-0.225,0.124-0.264,0.248L2.772,77.022
	c-0.041,0.134-0.004,0.277,0.096,0.373C2.938,77.464,3.03,77.5,3.125,77.5c0.04,0,0.082-0.008,0.123-0.021l21.29-7.51
	c0.119-0.042,0.209-0.139,0.236-0.264c0.027-0.124-0.009-0.254-0.099-0.342L10.268,54.977z"/>
</svg>
