<?xml version="1.0" encoding="utf-8"?>
<!-- Generator: Adobe Illustrator 16.0.0, SVG Export Plug-In . SVG Version: 6.00 Build 0)  -->
<!DOCTYPE svg PUBLIC "-//W3C//DTD SVG 1.1//EN" "http://www.w3.org/Graphics/SVG/1.1/DTD/svg11.dtd">
<svg version="1.1" id="Layer_1" xmlns="http://www.w3.org/2000/svg" xmlns:xlink="http://www.w3.org/1999/xlink" x="0px" y="0px"
	 width="70px" height="70px" viewBox="0 0 70 70" enable-background="new 0 0 70 70" xml:space="preserve">
<path fill="#B3B3B3" d="M26.508,56.016L26.508,56.016l-0.096-0.003c-0.372-0.031-0.704-0.188-0.954-0.44L14.159,44.285
	c-0.28-0.279-0.44-0.663-0.439-1.052c0.001-0.378,0.148-0.732,0.415-0.995l28.798-28.755c0.539-0.537,1.492-0.522,2.043,0.027
	L56.28,24.801c0.251,0.245,0.408,0.581,0.437,0.936c0.027,0.425-0.122,0.823-0.408,1.109L27.506,55.605
	C27.237,55.871,26.884,56.016,26.508,56.016z M16.453,43.25l10.046,10.035l27.489-27.447L43.94,15.804L16.453,43.25z"/>
<path fill="#B3B3B3" d="M55.55,27.004h-0.014c-0.388-0.003-0.754-0.156-1.027-0.43L43.205,15.285
	c-0.271-0.266-0.432-0.646-0.432-1.037s0.16-0.771,0.44-1.045l3.71-3.707C48.213,8.209,49.928,7.5,51.752,7.5
	c1.823,0,3.538,0.709,4.828,1.996l3.72,3.716c1.29,1.288,2.001,3,2.001,4.823c0,1.822-0.71,3.536-2.001,4.825l-3.719,3.714
	c-0.271,0.271-0.633,0.424-1.019,0.43H55.55z M45.498,14.248l10.047,10.034l3.091-3.087c0.846-0.844,1.312-1.966,1.312-3.159
	s-0.466-2.314-1.311-3.157l-3.72-3.716c-1.692-1.688-4.644-1.685-6.329,0L45.498,14.248z"/>
<path fill="#B3B3B3" d="M9.173,62.5l-0.049-0.001c-0.001,0-0.002,0-0.003,0c-0.344,0-0.705-0.148-0.979-0.416
	c-0.395-0.381-0.541-0.951-0.375-1.483l5.404-17.186c0.151-0.489,0.559-0.87,1.062-0.987l0.338-0.04
	c0.384,0,0.749,0.149,1.025,0.418l11.314,11.301c0.349,0.34,0.504,0.863,0.396,1.354c-0.107,0.494-0.459,0.893-0.941,1.063
	L9.465,62.484L9.173,62.5z M14.977,45.516l-4.431,14.091l13.701-4.832L14.977,45.516z"/>
</svg>
