<?xml version="1.0" encoding="utf-8"?>
<!-- Generator: Adobe Illustrator 16.0.0, SVG Export Plug-In . SVG Version: 6.00 Build 0)  -->
<!DOCTYPE svg PUBLIC "-//W3C//DTD SVG 1.1//EN" "http://www.w3.org/Graphics/SVG/1.1/DTD/svg11.dtd">
<svg version="1.1" id="Layer_1" xmlns="http://www.w3.org/2000/svg" xmlns:xlink="http://www.w3.org/1999/xlink" x="0px" y="0px"
	 width="70px" height="70px" viewBox="0 0 70 70" enable-background="new 0 0 70 70" xml:space="preserve">
<g>
	<path fill="none" stroke="#AAAAAA" stroke-width="2" stroke-miterlimit="10" d="M34.758,7c3.481,0,5.849,2.646,5.849,6.057
		c0,3.621-2.577,6.126-5.849,6.126c-3.202,0-5.779-2.506-5.779-6.126C28.979,9.507,31.556,7,34.758,7z M25.567,56.08
		c4.108,0,4.458-0.628,4.458-5.779V34.358c0-5.151-0.278-5.5-4.458-5.5v-2.783c4.247-0.279,8.773-1.393,13.576-3.412l1.185,0.625
		V50.37c0,5.082,0.418,5.71,4.104,5.71V59H25.567V56.08z"/>
</g>
</svg>
