<?xml version="1.0" encoding="utf-8"?>
<!-- Generator: Adobe Illustrator 16.0.0, SVG Export Plug-In . SVG Version: 6.00 Build 0)  -->
<!DOCTYPE svg PUBLIC "-//W3C//DTD SVG 1.1//EN" "http://www.w3.org/Graphics/SVG/1.1/DTD/svg11.dtd">
<svg version="1.1" id="Layer_1" xmlns="http://www.w3.org/2000/svg" xmlns:xlink="http://www.w3.org/1999/xlink" x="0px" y="0px"
	 width="70px" height="70px" viewBox="0 0 70 70" enable-background="new 0 0 70 70" xml:space="preserve">
<path fill="none" stroke="#AAAAAA" stroke-width="2" stroke-miterlimit="10" d="M34.648,9c-14.359,0-26,11.641-26,26
	s11.641,26,26,26c14.362,0,26-11.641,26-26S49.01,9,34.648,9z M49.245,35.552c0,2.036-1.649,3.688-3.688,3.688h-7.431v7.431
	c0,2.037-1.652,3.688-3.687,3.688H34.4c-2.037,0-3.687-1.651-3.687-3.688v-7.431h-7.962c-2.036,0-3.687-1.651-3.687-3.688v-0.037
	c0-2.038,1.651-3.69,3.687-3.69h7.962v-7.96c0-2.038,1.649-3.688,3.687-3.688h0.039c2.036,0,3.687,1.651,3.687,3.688v7.96h7.432
	c2.038,0,3.688,1.652,3.688,3.69V35.552L49.245,35.552z"/>
</svg>
