<?xml version="1.0" encoding="utf-8"?>
<!-- Generator: Adobe Illustrator 16.0.0, SVG Export Plug-In . SVG Version: 6.00 Build 0)  -->
<!DOCTYPE svg PUBLIC "-//W3C//DTD SVG 1.1//EN" "http://www.w3.org/Graphics/SVG/1.1/DTD/svg11.dtd">
<svg version="1.1" id="Layer_1" xmlns="http://www.w3.org/2000/svg" xmlns:xlink="http://www.w3.org/1999/xlink" x="0px" y="0px"
	 width="80px" height="80px" viewBox="0 0 80 80" enable-background="new 0 0 80 80" xml:space="preserve">
<g>
	<path fill="#FF9D00" d="M40,77.5c20.71,0,37.499-16.79,37.499-37.5C77.499,19.289,60.71,2.5,40,2.5
		C19.289,2.5,2.501,19.289,2.501,40C2.501,60.71,19.289,77.5,40,77.5z M39.759,14.25c3.448,0,5.792,2.62,5.792,5.998
		c0,3.586-2.552,6.066-5.792,6.066c-3.172,0-5.723-2.481-5.723-6.066C34.036,16.731,36.587,14.25,39.759,14.25z M30.659,62.855
		c4.068,0,4.412-0.62,4.412-5.721V41.344c0-5.102-0.275-5.447-4.412-5.447V33.14c4.206-0.277,8.687-1.38,13.445-3.378l1.172,0.62
		v26.82c0,5.033,0.412,5.654,4.067,5.654v2.894H30.659V62.855z"/>
</g>
</svg>
