<svg xmlns="http://www.w3.org/2000/svg" xmlns:xlink="http://www.w3.org/1999/xlink" version="1.1" id="Layer_14" x="0px" y="0px" width="100px" height="100px" viewBox="0 0 100 100" enable-background="new 0 0 100 100" xml:space="preserve">
<path d="M63.889,50L92.66,21.229c1.096-1.096,1.096-2.874,0-3.968L82.741,7.34c-1.095-1.096-2.874-1.096-3.97,0L50,36.112  L21.229,7.34c-1.096-1.096-2.874-1.096-3.97,0L7.34,17.261c-1.096,1.094-1.096,2.872,0,3.968L36.112,50L7.34,78.771  c-1.096,1.096-1.096,2.875,0,3.968l9.919,9.921c1.096,1.096,2.874,1.096,3.97,0L50,63.889L78.771,92.66  c1.096,1.096,2.875,1.096,3.97,0l9.919-9.921c1.096-1.093,1.096-2.872,0-3.968L63.889,50z" fill="#fff"/>
</svg>