<?xml version="1.0" encoding="utf-8"?>
<!-- Generator: Adobe Illustrator 16.0.0, SVG Export Plug-In . SVG Version: 6.00 Build 0)  -->
<!DOCTYPE svg PUBLIC "-//W3C//DTD SVG 1.1//EN" "http://www.w3.org/Graphics/SVG/1.1/DTD/svg11.dtd">
<svg version="1.1" id="Layer_1" xmlns="http://www.w3.org/2000/svg" xmlns:xlink="http://www.w3.org/1999/xlink" x="0px" y="0px"
	 width="70px" height="70px" viewBox="0 0 70 70" enable-background="new 0 0 70 70" xml:space="preserve">
<path fill="none" stroke="#B3B3B3" stroke-width="2" stroke-miterlimit="10" d="M21.186,59.295v-3.952c0,0,0.258-2.427,3.178-3.179
	c0,0,4.705-1.719,8.391-3.321c1.906-0.829,2.318-1.327,4.238-2.178c0,0,0.2-0.987,0.129-1.573h1.506c0,0,0.343,0.199,0-2.121
	c0,0-1.834-0.484-1.92-4.18c0,0-1.377,0.463-1.461-1.775c-0.057-1.517-1.23-2.835,0.459-3.923l-0.859-2.319
	c0,0-1.719-9.365,3.221-7.989c-2.084-2.491,11.813-4.982,12.715,2.92c0,0,0.645,4.268,0,7.188c0,0,2.029-0.234,0.672,3.667
	c0,0-0.742,2.806-1.889,2.176c0,0,0.186,3.551-1.617,4.152c0,0,0.127,1.891,0.127,2.019l1.719,0.257c0,0-0.258,1.548,0.045,1.718
	c0,0,2.037,1.397,4.465,2.021c4.685,1.201,10.225,3.265,10.225,5.068c0,0,0.474,2.405,0.474,5.326H21.186V59.295z"/>
<g>
	<path fill="none" stroke="#B3B3B3" stroke-width="2" stroke-miterlimit="10" d="M32.755,48.843
		c1.906-0.829,2.318-1.327,4.238-2.178c0,0,0.2-0.987,0.129-1.573h1.506c0,0,0.343,0.199,0-2.121c0,0-1.83-0.484-1.919-4.17
		c-0.006-0.002-0.01-0.004-0.016-0.006c-0.098,0.029-0.742,0.179-1.139-0.487c-1.141-0.546-1.903-1.064-1.903-1.064
		c-0.303-0.173-0.043-1.718-0.043-1.718l-1.719-0.258c0-0.129-0.127-2.02-0.127-2.02c1.803-0.601,1.615-4.151,1.615-4.151
		c0.486,0.267,0.899-0.085,1.214-0.577c-0.098-1.631-0.025-3.747,0.804-4.942c-0.336-0.372-0.801-0.324-0.801-0.324
		c0.645-2.921,0-7.187,0-7.187c-0.902-7.903-14.797-5.413-12.713-2.922c-4.94-1.374-3.223,7.989-3.223,7.989l0.859,2.319
		c-1.689,1.089-0.516,2.405-0.457,3.924c0.084,2.237,1.459,1.775,1.459,1.775c0.086,3.694,1.92,4.181,1.92,4.181
		c0.342,2.318,0,2.119,0,2.119h-1.504c0.072,0.588-0.129,1.576-0.129,1.576c-1.922,0.849-2.332,1.347-4.238,2.175
		c-3.686,1.604-8.391,3.323-8.391,3.323C5.256,43.277,5,45.703,5,45.703v3.951v0.002h25.826
		C31.479,49.388,32.132,49.113,32.755,48.843z"/>
</g>
</svg>
