<?xml version="1.0" encoding="utf-8"?>
<!-- Generator: Adobe Illustrator 16.0.0, SVG Export Plug-In . SVG Version: 6.00 Build 0)  -->
<!DOCTYPE svg PUBLIC "-//W3C//DTD SVG 1.1//EN" "http://www.w3.org/Graphics/SVG/1.1/DTD/svg11.dtd">
<svg version="1.1" id="Layer_1" xmlns="http://www.w3.org/2000/svg" xmlns:xlink="http://www.w3.org/1999/xlink" x="0px" y="0px"
	 width="70px" height="70px" viewBox="0 0 70 70" enable-background="new 0 0 70 70" xml:space="preserve">
<path fill="#FFFFFF" stroke="#B3B3B3" stroke-width="2" stroke-miterlimit="10" d="M5,49.655v-3.952c0,0,0.256-2.425,3.178-3.178
	c0,0,4.705-1.719,8.391-3.323c1.906-0.828,2.316-1.326,4.238-2.175c0,0,0.201-0.988,0.129-1.576h1.504c0,0,0.342,0.199,0-2.119
	c0,0-1.834-0.487-1.92-4.181c0,0-1.375,0.462-1.459-1.775c-0.059-1.519-1.232-2.835,0.457-3.924l-0.859-2.319
	c0,0-1.717-9.363,3.223-7.989c-2.084-2.491,11.811-4.981,12.713,2.922c0,0,0.645,4.266,0,7.187c0,0,2.031-0.233,0.674,3.667
	c0,0-0.744,2.806-1.891,2.176c0,0,0.188,3.55-1.615,4.151c0,0,0.127,1.891,0.127,2.02l1.719,0.258c0,0-0.26,1.546,0.043,1.718
	c0,0,2.037,1.396,4.467,2.019c4.682,1.202,10.223,3.265,10.223,5.069c0,0,0.473,2.405,0.473,5.325H5z"/>
<path fill="#FFFFFF" stroke="#B3B3B3" stroke-width="2" stroke-miterlimit="10" d="M21.186,59.295v-3.952
	c0,0,0.258-2.427,3.178-3.179c0,0,4.705-1.718,8.391-3.321c1.906-0.83,2.318-1.327,4.238-2.178c0,0,0.201-0.987,0.129-1.573h1.506
	c0,0,0.342,0.199,0-2.121c0,0-1.834-0.485-1.92-4.18c0,0-1.377,0.463-1.461-1.776c-0.057-1.516-1.23-2.835,0.459-3.922l-0.859-2.319
	c0,0-1.719-9.365,3.221-7.989c-2.084-2.491,11.814-4.982,12.715,2.92c0,0,0.645,4.268,0,7.188c0,0,2.029-0.234,0.672,3.667
	c0,0-0.742,2.806-1.889,2.176c0,0,0.186,3.551-1.617,4.152c0,0,0.127,1.891,0.127,2.019l1.719,0.257c0,0-0.258,1.548,0.045,1.718
	c0,0,2.037,1.397,4.465,2.021c4.684,1.201,10.225,3.264,10.225,5.068c0,0,0.473,2.405,0.473,5.326H21.186z"/>
</svg>
