<?xml version="1.0" encoding="utf-8"?>
<!-- Generator: Adobe Illustrator 16.0.0, SVG Export Plug-In . SVG Version: 6.00 Build 0)  -->
<!DOCTYPE svg PUBLIC "-//W3C//DTD SVG 1.1//EN" "http://www.w3.org/Graphics/SVG/1.1/DTD/svg11.dtd">
<svg version="1.1" id="Your_Icon" xmlns="http://www.w3.org/2000/svg" xmlns:xlink="http://www.w3.org/1999/xlink" x="0px" y="0px"
	 width="100px" height="100px" viewBox="0 0 100 100" enable-background="new 0 0 100 100" xml:space="preserve">
<path fill="#B3B3B3" d="M31.387,65.375h-7.332c-0.276,0-0.5-0.225-0.5-0.5v-44.75c0-0.275,0.224-0.5,0.5-0.5h37.225
	c0.275,0,0.5,0.225,0.5,0.5v8h7v-8c0-4.136-3.365-7.5-7.5-7.5H24.055c-4.136,0-7.5,3.364-7.5,7.5v44.75c0,4.135,3.364,7.5,7.5,7.5
	h7.332V65.375z"/>
<path fill="#B3B3B3" d="M75.945,87.375H38.722c-4.136,0-7.5-3.364-7.5-7.5v-44.75c0-4.136,3.364-7.5,7.5-7.5h37.224
	c4.136,0,7.5,3.364,7.5,7.5v44.75C83.445,84.011,80.081,87.375,75.945,87.375z M38.722,34.625c-0.276,0-0.5,0.225-0.5,0.5v44.75
	c0,0.275,0.224,0.5,0.5,0.5h37.224c0.275,0,0.5-0.225,0.5-0.5v-44.75c0-0.275-0.225-0.5-0.5-0.5H38.722z"/>
</svg>
