<?xml version="1.0" encoding="utf-8"?>
<!-- Generator: Adobe Illustrator 16.0.0, SVG Export Plug-In . SVG Version: 6.00 Build 0)  -->
<!DOCTYPE svg PUBLIC "-//W3C//DTD SVG 1.1//EN" "http://www.w3.org/Graphics/SVG/1.1/DTD/svg11.dtd">
<svg version="1.1" id="Layer_1" xmlns="http://www.w3.org/2000/svg" xmlns:xlink="http://www.w3.org/1999/xlink" x="0px" y="0px"
	 width="70px" height="70px" viewBox="0 0 70 70" enable-background="new 0 0 70 70" xml:space="preserve">
<g>
	<path fill="#B3B3B3" d="M54.288,59.5H15.714c-1.1-0.004-1.994-0.898-1.997-1.994V40.213H9.286
		c-0.534-0.002-1.032-0.208-1.405-0.581c-0.377-0.371-0.588-0.873-0.591-1.407c-0.003-0.535,0.202-1.038,0.579-1.418l25.717-25.718
		c0.315-0.32,0.74-0.526,1.191-0.577c0.63-0.069,1.219,0.152,1.642,0.58L47.92,22.593c0.039-1.068,0.919-1.926,1.991-1.93h4.246
		c1.099,0.004,1.993,0.898,1.997,1.994v8.171l5.976,5.976c0.374,0.378,0.579,0.875,0.581,1.402c0.006,1.1-0.887,2.001-1.989,2.009
		h-4.439v17.288c-0.004,1.099-0.897,1.993-1.992,1.997H54.288z M14.718,38.213h1v19.29L54.28,57.5l0.002-19.285h6.433l-6.561-6.559
		V22.66l-4.239,0.003l0.004,4.757L35.001,12.503L9.285,38.218L14.718,38.213z"/>
</g>
</svg>
