<?xml version="1.0" encoding="utf-8"?>
<!-- Generator: Adobe Illustrator 16.0.0, SVG Export Plug-In . SVG Version: 6.00 Build 0)  -->
<!DOCTYPE svg PUBLIC "-//W3C//DTD SVG 1.1//EN" "http://www.w3.org/Graphics/SVG/1.1/DTD/svg11.dtd">
<svg version="1.1" id="Layer_1" xmlns="http://www.w3.org/2000/svg" xmlns:xlink="http://www.w3.org/1999/xlink" x="0px" y="0px"
	 width="70px" height="70px" viewBox="0 0 70 70" enable-background="new 0 0 70 70" xml:space="preserve">
<path fill="none" stroke="#AAAAAA" stroke-width="2" stroke-miterlimit="10" d="M34.648,10c-13.807,0-25,11.193-25,25
	c0,13.807,11.193,25,25,25c13.809,0,25-11.193,25-25C59.648,21.193,48.457,10,34.648,10z M48.684,35.531
	c0,1.957-1.586,3.545-3.545,3.545h-7.146v7.145c0,1.959-1.589,3.547-3.545,3.547H34.41c-1.959,0-3.545-1.588-3.545-3.547v-7.145
	h-7.656c-1.957,0-3.545-1.588-3.545-3.545v-0.037c0-1.959,1.588-3.547,3.545-3.547h7.656v-7.654c0-1.959,1.586-3.547,3.545-3.547
	h0.037c1.958,0,3.545,1.588,3.545,3.547v7.654h7.146c1.959,0,3.545,1.588,3.545,3.547V35.531L48.684,35.531z"/>
</svg>
