<?xml version="1.0" encoding="utf-8"?>
<!-- Generator: Adobe Illustrator 16.0.0, SVG Export Plug-In . SVG Version: 6.00 Build 0)  -->
<!DOCTYPE svg PUBLIC "-//W3C//DTD SVG 1.1//EN" "http://www.w3.org/Graphics/SVG/1.1/DTD/svg11.dtd">
<svg version="1.1" id="Layer_1" xmlns="http://www.w3.org/2000/svg" xmlns:xlink="http://www.w3.org/1999/xlink" x="0px" y="0px"
	 width="100px" height="100px" viewBox="0 0 100 100" enable-background="new 0 0 100 100" xml:space="preserve">
<path fill="#B3B3B3" d="M49,89C26.943,89,9,71.057,9,49C9,26.944,26.943,9,49,9c22.057,0,40.002,17.944,40.002,40
	C89.002,71.057,71.057,89,49,89L49,89z M49,17.316C31.528,17.316,17.315,31.53,17.315,49c0,17.47,14.214,31.684,31.684,31.684
	c17.473,0,31.688-14.214,31.688-31.684C80.688,31.53,66.472,17.316,49,17.316L49,17.316z"/>
<path fill="#B3B3B3" d="M68.611,57.176H41.5V31.552c0-2.761,2.239-5,5-5c2.76,0,5.002,2.239,5.002,5v15.625h17.109
	c2.76,0,5,2.239,5,5C73.611,54.938,71.371,57.176,68.611,57.176z"/>
</svg>
