<?xml version="1.0" encoding="utf-8"?>
<!-- Generator: Adobe Illustrator 16.0.0, SVG Export Plug-In . SVG Version: 6.00 Build 0)  -->
<!DOCTYPE svg PUBLIC "-//W3C//DTD SVG 1.1//EN" "http://www.w3.org/Graphics/SVG/1.1/DTD/svg11.dtd">
<svg version="1.1" id="Layer_1" xmlns="http://www.w3.org/2000/svg" xmlns:xlink="http://www.w3.org/1999/xlink" x="0px" y="0px"
	 width="200px" height="200px" viewBox="0 0 200 200" enable-background="new 0 0 200 200" xml:space="preserve">
<rect fill="#5FA4D5" width="200" height="200"/>
<g>
	
		<image overflow="visible" opacity="0.5" width="357" height="536" xlink:href="55B3ABABD2851302.png"  transform="matrix(0.24 0 0 0.24 58.2354 36.7021)">
	</image>
	<g>
		<g>
			<path fill="#D9EDFA" d="M86.011,117.798v-5.42c0-4.688,1-8.764,3.003-12.231c2.001-3.466,5.664-7.152,10.986-11.06
				c5.127-3.662,8.508-6.64,10.144-8.936c1.636-2.294,2.454-4.858,2.454-7.69c0-3.173-1.172-5.59-3.516-7.251
				c-2.344-1.659-5.615-2.49-9.814-2.49c-7.324,0-15.674,2.393-25.049,7.178l-7.983-16.04c10.888-6.103,22.436-9.155,34.644-9.155
				c10.059,0,18.054,2.417,23.987,7.251c5.932,4.834,8.898,11.279,8.898,19.336c0,5.372-1.221,10.01-3.662,13.916
				c-2.442,3.907-7.08,8.302-13.916,13.184c-4.688,3.468-7.654,6.104-8.898,7.91c-1.246,1.807-1.868,4.175-1.868,7.104v4.395H86.011
				z M83.667,142.847c0-4.102,1.099-7.202,3.296-9.302c2.197-2.099,5.395-3.149,9.595-3.149c4.053,0,7.189,1.075,9.412,3.223
				c2.221,2.149,3.332,5.226,3.332,9.229c0,3.857-1.124,6.897-3.369,9.118c-2.246,2.222-5.372,3.333-9.375,3.333
				c-4.102,0-7.276-1.087-9.521-3.259C84.79,149.866,83.667,146.802,83.667,142.847z"/>
		</g>
	</g>
</g>
</svg>
